{
	"asset":{
		"generator":"Khronos glTF Blender I/O v4.3.47",
		"version":"2.0"
	},
	"scene":0,
	"scenes":[
		{
			"name":"Scene",
			"nodes":[
				0
			]
		}
	],
	"nodes":[
		{
			"mesh":0,
			"name":"Printed Amani Jar 1st"
		}
	],
	"meshes":[
		{
			"name":"Printed Amani Jar 1st",
			"primitives":[
				{
					"attributes":{
						"POSITION":0,
						"NORMAL":1
					},
					"indices":2
				}
			]
		}
	],
	"accessors":[
		{
			"bufferView":0,
			"componentType":5126,
			"count":2209250,
			"max":[
				36.83014678955078,
				90.08441925048828,
				37.544342041015625
			],
			"min":[
				-36.82899475097656,
				-0.000457409187220037,
				-37.55268859863281
			],
			"type":"VEC3"
		},
		{
			"bufferView":1,
			"componentType":5126,
			"count":2209250,
			"type":"VEC3"
		},
		{
			"bufferView":2,
			"componentType":5125,
			"count":2513466,
			"type":"SCALAR"
		}
	],
	"bufferViews":[
		{
			"buffer":0,
			"byteLength":26511000,
			"byteOffset":0,
			"target":34962
		},
		{
			"buffer":0,
			"byteLength":26511000,
			"byteOffset":26511000,
			"target":34962
		},
		{
			"buffer":0,
			"byteLength":10053864,
			"byteOffset":53022000,
			"target":34963
		}
	],
	"buffers":[
		{
			"byteLength":63075864,
			"uri":"tracked_object_model.bin"
		}
	]
}
